<?xml version="1.0" encoding="UTF-8" standalone="no"?>
<!DOCTYPE svg PUBLIC "-//W3C//DTD SVG 1.1//EN" "http://www.w3.org/Graphics/SVG/1.1/DTD/svg11.dtd">
<svg width="100%" height="100%" viewBox="0 0 652 1477" version="1.1" xmlns="http://www.w3.org/2000/svg" xmlns:xlink="http://www.w3.org/1999/xlink" xml:space="preserve" xmlns:serif="http://www.serif.com/" style="fill-rule:evenodd;clip-rule:evenodd;stroke-linecap:round;stroke-linejoin:round;stroke-miterlimit:1.5;">
    <g transform="matrix(1,0,0,1,-592.788967,-1110.156914)">
        <g id="Layer1">
            <path d="M931.488,2383.342C899.738,2394.148 891.503,2502.209 938.539,2508.153C977.597,2513.089 975.385,2405.144 966.006,2389.066C963.626,2384.987 927.175,2322.5 912.638,2414.296" style="fill:rgb(153,120,102);stroke:rgb(139,109,93);stroke-width:1px;"/>
            <path d="M728.197,2148.088L728.161,2148.112" style="fill:none;stroke:black;stroke-width:1px;"/>
            <path d="M691.121,2221.698C696.638,2189.892 743.397,2088.955 748.438,2080.18C777.228,2030.062 1003.94,1899.071 1011.906,2006.82C1020.425,2122.059 1030.869,2162.775 1007.412,2253.662C994.88,2302.22 969.127,2453.917 917.981,2429.463C871.084,2407.041 897.673,2189.455 898.982,2172.763C893.383,2194.566 757.261,2245.812 731.485,2247.938C690.628,2251.308 694.951,2224.037 686.47,2224.663" style="fill:rgb(77,125,179);stroke:rgb(71,116,166);stroke-width:1px;"/>
            <path d="M908.337,2524.334L907.87,2525.616" style="fill:none;stroke:black;stroke-width:1px;"/>
            <path d="M1099.052,2279.92C1062.957,2285.784 1066.515,2400.108 1076.158,2422.006C1147.016,2582.914 1171.796,2350.158 1154.42,2302.793C1152.57,2297.751 1148.394,2294.491 1145.976,2290.73C1119.419,2249.44 1065.542,2280.301 1089.7,2298.085" style="fill:rgb(153,120,102);stroke:rgb(142,111,94);stroke-width:1px;"/>
            <path d="M893.754,2495.868C893.754,2495.868 895.92,2460.679 931.03,2477.915C952.077,2488.247 948.381,2446.884 964.397,2461.716C976.628,2473.043 965.234,2504.704 992.093,2508.147C1042.224,2514.573 1053.863,2583.494 1005.597,2585.546C891.738,2590.386 893.18,2551.529 893.754,2495.868Z" style="fill:rgb(179,112,77);stroke:rgb(161,101,69);stroke-width:1px;"/>
            <path d="M1011.908,2211.326C1043.334,2294.507 1030.827,2367.717 1105.528,2348.62C1148.629,2337.601 1168.853,2231.282 1143.213,2112.865C1142.938,2111.598 1136.159,2023.851 1123.348,1993.9C1112.427,1968.37 1082.707,1957.157 1082.707,1957.157C1082.707,1957.157 1054.855,1956.747 1043.341,1959.069C1029.222,1961.916 976.631,1965.443 976.631,1965.443C976.631,1965.443 790.747,2024.711 780.586,2035.653C760.17,2057.64 539.542,2321.557 841.341,2215.132C854.363,2210.541 992.62,2136.281 992.62,2136.281C992.62,2136.281 1003.189,2188.247 1011.908,2211.326Z" style="fill:rgb(77,125,179);stroke:rgb(71,116,166);stroke-width:1px;"/>
            <path d="M753.474,1267.117C752.429,1255.623 747.916,1257.854 745.842,1257.358C740.01,1255.962 735.657,1264.726 734.739,1274.443C733.899,1283.334 736.219,1293.188 736.255,1293.409C738.097,1304.572 753.295,1326.107 750.008,1294.949C764.537,1370.94 690.387,1484.449 768.773,1486.26C801.429,1487.015 762.302,1357.893 831.769,1372.44C860.359,1378.427 868.856,1379.721 873.718,1350.989C878.239,1324.267 879.375,1324.583 881.03,1297.562C881.65,1287.442 881.624,1234.256 881.181,1230.841C876.349,1193.589 863.972,1175.934 856.172,1167.97C853.652,1165.398 851.61,1163.837 850.454,1162.953C830.642,1147.807 757.425,1114.798 753.67,1181.21C752.406,1203.569 752.504,1203.352 749.849,1225.51C747.095,1248.496 756.779,1267.194 752.028,1268.495C751.457,1268.651 753.654,1266.91 753.083,1267.066" style="fill:rgb(153,120,102);stroke:rgb(139,109,93);stroke-width:1px;"/>
            <path d="M815.992,1208.853C805.799,1211.601 810.448,1238.985 818.87,1223C823.59,1214.044 837.047,1241.212 847.237,1223.942C852.561,1214.919 842.422,1211.261 832.305,1209.794C824.141,1208.611 815.992,1208.853 815.992,1208.853Z" style="fill:rgb(166,89,116);stroke:rgb(151,81,106);stroke-width:1px;"/>
            <path d="M820.791,1236.818C812.124,1239.532 802.343,1263.551 827.424,1268.508C840.491,1271.091 837.28,1249.371 836.027,1244.788C834.185,1238.049 829.257,1236.002 825.498,1235.851C822.938,1235.748 820.92,1236.777 820.791,1236.818Z" style="fill:white;stroke:white;stroke-width:1px;"/>
            <path d="M825.301,1235.851C825.301,1235.851 821.5,1237.999 818.687,1241.055C817.826,1241.991 817.058,1243.011 816.519,1244.082C814.539,1248.017 815.698,1252.88 815.707,1253.621C815.884,1268.215 833.865,1275.474 837.304,1261.757C839.816,1251.74 836.813,1244.032 834.053,1240.015C831.919,1236.908 829.236,1236.017 827.596,1235.844C826.887,1235.769 825.301,1235.851 825.301,1235.851Z" style="fill:rgb(77,62,55);stroke:rgb(77,62,55);stroke-width:1px;"/>
            <path d="M654.648,1534.507C654.648,1534.507 612.683,1707.672 610.939,1727.712C602.491,1824.744 578.613,1924.369 606.242,2063.928C630.434,2186.13 625.384,2303.92 740.564,2242.194C800.041,2210.319 947.638,2012.837 901.572,1938.113C879.018,1901.529 902.609,1615.835 857.762,1523.887C852.512,1513.123 843.484,1481.283 838.753,1479.026C838.753,1479.026 805.993,1437.386 767.264,1440.847C739.786,1443.302 671.435,1464.307 666.583,1486.756C656.082,1535.342 654.648,1534.507 654.648,1534.507Z" style="fill:rgb(191,109,64);stroke:rgb(156,93,59);stroke-width:1px;"/>
            <g transform="matrix(1,0,0,1,-1.496234,0)">
                <path d="M880.142,1277.316C880.545,1276.52 880.569,1276.646 882.626,1274.345C883.531,1294.499 887.786,1293.223 892.215,1301.472C894.462,1305.658 879.718,1310.173 878.235,1308.395C877.947,1308.049 874.525,1296.051 880.154,1278.276C880.354,1277.644 880.8,1277.071 880.841,1276.409C880.86,1276.102 880.207,1277.407 880.226,1277.1" style="fill:rgb(153,120,102);stroke:rgb(143,112,95);stroke-width:1px;"/>
            </g>
            <path d="M857.618,1170.054C857.385,1169.61 855.165,1167.174 854.957,1166.745C847.642,1151.65 857.313,1146.338 862.09,1146.072C890.026,1144.512 912.238,1236.386 883.92,1265.718C882.157,1267.544 868.273,1276.877 865.711,1239.742C865.002,1229.463 865.663,1193.464 864.379,1181.721C863.872,1177.091 860.625,1173.016 857.618,1170.054Z" style="fill:rgb(166,89,116);stroke:rgb(166,89,116);stroke-width:1px;"/>
            <path d="M1068.872,2462.326C1068.872,2462.326 1080.742,2407.891 1094.166,2428.941C1098.575,2435.855 1095.155,2443.506 1111.164,2441.178C1123.106,2439.442 1127.276,2409.666 1149.881,2419.252C1157.086,2422.308 1164.275,2442.143 1158.273,2452.892C1151.145,2465.658 1158.388,2485.612 1180.522,2486.345C1181.098,2486.364 1234.371,2480.811 1242.585,2515.94C1249.435,2545.236 1227.546,2553.327 1224.345,2554.511C1196.102,2564.951 1185.54,2566.667 1150.281,2565.671C1145.794,2565.544 1124.064,2564.931 1096.987,2548.105C1092.401,2545.255 1072.99,2531.846 1066.905,2522.21C1061.11,2513.034 1060.474,2490.292 1060.474,2490.292C1060.474,2490.292 1065.261,2472.891 1066.628,2468.963C1067.503,2466.448 1068.872,2462.326 1068.872,2462.326Z" style="fill:rgb(179,112,77);stroke:rgb(161,101,69);stroke-width:1px;"/>
            <path d="M845.365,1334.498C847.937,1342.401 867.934,1341.734 870.264,1344.196" style="fill:none;stroke:rgb(96,83,76);stroke-width:1px;"/>
            <path d="M889.947,2381.614L889.859,2381.514" style="fill:none;stroke:black;stroke-width:1px;"/>
            <path d="M892.871,2435.485C946.568,2452.544 1005.498,2426.654 977.778,2387.199C968.724,2374.313 908.987,2391.562 903.466,2393.993C883.765,2402.669 889.01,2429.518 896.027,2436.784" style="fill:rgb(77,125,179);stroke:rgb(70,114,163);stroke-width:1px;"/>
            <path d="M1037.353,2331.31C1037.353,2331.31 1036.712,2371.636 1086.27,2362.364C1161.552,2348.281 1170.986,2341.294 1174.505,2336.321C1175.889,2334.365 1197.617,2288.673 1133.771,2290.802C1085.797,2292.402 1038.039,2321.672 1037.353,2331.31Z" style="fill:rgb(77,125,179);stroke:rgb(71,116,166);stroke-width:1px;"/>
            <path d="M1019.567,1767.946L1019.487,1768.182" style="fill:none;stroke:black;stroke-width:1px;"/>
            <path d="M1157.213,1750.81C1160.372,1747.733 1146.862,1744.241 1141.242,1744.254C1105.5,1744.337 1093.958,1750.297 1091.902,1753.571C1091.74,1753.829 1089.772,1772.817 1094.108,1798.61C1095.738,1808.31 1096.46,1810.205 1104.557,1813.492C1110.665,1815.972 1147.723,1817.163 1153.928,1809.85C1155.714,1807.745 1157.103,1804.785 1159.221,1782.172C1160.784,1765.493 1158.427,1753.277 1157.952,1750.811" style="fill:rgb(128,128,128);stroke:black;stroke-width:1px;"/>
            <path d="M1090.787,1748.051C1089.855,1747.61 1090.498,1738.121 1093.4,1736.785C1094.83,1736.126 1107.611,1733.177 1112.303,1732.763C1117.452,1732.308 1122.944,1731.571 1122.944,1731.571L1135.81,1729.342C1135.81,1729.342 1152.396,1727.213 1154.37,1730.947C1161.804,1745.009 1149.302,1744.626 1145.106,1745.624C1133.458,1748.393 1113.006,1753.755 1096.569,1752.526C1090.797,1752.095 1090.68,1750.28 1090.404,1747.805L1090.313,1749.155" style="fill:none;stroke:black;stroke-width:1px;"/>
            <path d="M1161.562,1753.586C1161.676,1753.538 1161.484,1754.005 1161.598,1753.956C1162.086,1753.747 1163.62,1748.166 1163.06,1745.465C1162.212,1741.369 1159.768,1737.949 1159.768,1737.949C1159.768,1737.949 1123.853,1744.627 1107.185,1745.67C1092.386,1746.597 1084.131,1745.514 1084.131,1745.514C1084.131,1745.514 1080.813,1756.22 1084.306,1760.942C1087.052,1764.655 1119.317,1759.223 1122.321,1758.717C1138.235,1756.038 1148.11,1756.821 1162.016,1753.556L1161.271,1754.02" style="fill:white;stroke:black;stroke-width:1px;"/>
            <path d="M897.104,2187.026C897.104,2187.026 907.116,2200.445 917,2193C926.884,2185.555 923.038,2189.181 932,2182C940.962,2174.819 944.198,2166.244 957,2173C969.802,2179.756 995.568,2232.767 985,2259.137C974.432,2285.508 971.199,2293.937 969,2317C966.801,2340.063 965.571,2349.104 959,2372C952.429,2394.896 951.674,2399.229 956,2413C960.326,2426.771 963,2434 963,2434L965,2455C965,2455 967.208,2464.312 968,2468C968.326,2469.519 969.466,2459.937 971.415,2448.524C972.117,2444.414 969.501,2431.54 972.379,2429.419C986.348,2419.123 984.432,2407.815 984.863,2404C985.006,2402.728 983.938,2400.297 983.062,2397.449C982.238,2394.772 980.509,2392.083 980,2391C978.95,2388.765 975.175,2384.629 973,2384C970.825,2383.371 971.759,2382.466 971.759,2382.466L976,2372L982,2355L984,2348L989,2330L999,2290L1007,2256L1014,2224L1015,2220L1006,2193C1006,2193 995.273,2152.882 995,2150C994.727,2147.118 993,2136 993,2136L897.104,2187.026Z" style="fill-opacity:0.08;"/>
            <path d="M1019.376,1770.199C998.579,1755.242 983.07,1829.566 1025.426,1829.61C1043.351,1829.628 1078.478,1818.02 1086.392,1819.979C1101.757,1823.78 1129.953,1833.487 1149.15,1825.842C1156.497,1822.916 1170.792,1809.043 1153.044,1799.561C1163.009,1799.65 1167.151,1790.068 1161.323,1784.469C1169.312,1776.505 1168.193,1770.599 1156.882,1770.68C1156.319,1770.684 1104.311,1759.799 1081.852,1770.335C1076.006,1773.077 1066.244,1766.594 1042.591,1770.78C1030.775,1772.871 1030.555,1773.847 1019.346,1769.366C1015.722,1767.918 1016.362,1769.949 1016.026,1771.379" style="fill:rgb(153,120,102);stroke:black;stroke-width:1px;"/>
            <path d="M715.443,1500.889C699.926,1556.326 671.993,1692.664 697.262,1810.833C726.919,1949.518 722.965,1994.713 802.596,1968.378C830.411,1959.179 1019.116,1863.097 1034.314,1814.534C1052.768,1755.572 1018.005,1755.314 973.787,1749.957C905.359,1741.667 841.064,1731.29 838.969,1737.827C829.702,1766.747 858.469,1558.265 790.363,1478.206C759.419,1441.831 722.476,1475.761 715.443,1500.889Z" style="fill:rgb(191,109,64);stroke:rgb(156,93,59);stroke-width:1px;"/>
            <path d="M704.571,1846.187C704.571,1846.187 694.712,1866.07 695,1892C695.288,1917.93 699.7,1948.086 711,1963L720.677,1975.518L732.167,1987.793C732.167,1987.793 750.715,2005.13 757,2006C772.061,2008.084 780.882,2009.493 806.836,1992C832.791,1974.507 839.963,1969.521 851,1957C862.037,1944.479 866.9,1938 866.9,1938C866.9,1938 819.141,1962.197 811,1965C802.859,1967.803 776.422,1976.486 770,1975.518C763.578,1974.55 742.313,1974.895 732.167,1953C722.022,1931.105 719,1916 719,1916L710,1874L704.571,1846.187Z" style="fill-opacity:0.06;"/>
            <path d="M820.002,1541.517C794.317,1519.256 791.499,1562.724 785.639,1595.801C777.341,1642.633 788.619,1737.11 790.111,1742.143C800.931,1778.657 814.556,1820.24 870.385,1826.466C951.755,1835.541 951.181,1781.164 951.181,1781.164L951.181,1778.164C951.181,1778.164 941.621,1747.405 922.841,1743.497C911.866,1741.214 901.923,1741.566 893.029,1740.472C879.294,1738.783 871.061,1738.416 860.39,1737.068C854.435,1736.315 849.798,1736.247 846.056,1736.488C843.328,1736.664 845.059,1737.048 843.051,1734.566C842.46,1733.836 845.539,1729.982 845.539,1729.982C845.539,1729.982 845.958,1729.025 845.948,1727.495C845.893,1719.196 847.092,1720.602 846.936,1709.536C846.767,1697.541 850.706,1671.24 847.872,1625.473C847.369,1617.347 842.598,1600.534 841.463,1590.924C841.309,1589.626 838.139,1584.315 838.03,1582.986C837.688,1578.809 837.492,1573.466 830.7,1556.269C827.881,1549.133 820.591,1543.042 820.002,1541.517Z" style="fill-opacity:0.03;"/>
            <path d="M855.956,1168.11C855.956,1168.11 844.239,1159.484 842.062,1158.704C819.28,1150.539 781.034,1171.126 795.325,1191.841C817.713,1224.29 761.882,1266.942 749.039,1257.932C736.879,1249.4 729.211,1290.492 738.893,1298.768C742.203,1301.597 768.476,1324.055 758.556,1349.52C756.369,1355.135 739.892,1360.185 738.777,1377.357C735.594,1426.369 770.666,1423.304 757.028,1464.913C751.842,1480.734 721.477,1507.548 714.847,1471.688C711.315,1452.585 690.031,1423.284 669.358,1447.578C656.557,1462.621 647.342,1476.355 626.152,1454.357C622.133,1450.185 600.28,1443.117 601.26,1402.215C603.147,1323.454 708.709,1352.161 709.728,1265.793C710.005,1242.292 680.748,1196.415 706.118,1165.676C723.506,1144.607 728.157,1122.565 803.339,1111.058C823.692,1107.944 841.725,1123.52 863.645,1138.254C866.161,1139.945 870.39,1146.103 873.763,1150.528" style="fill:rgb(166,89,116);stroke:rgb(166,89,116);stroke-width:1px;"/>
            <path d="M880,1274.345C880,1274.345 879.111,1274.492 878,1276C876.889,1277.508 874.57,1284.55 874,1288C873.43,1291.45 872.994,1303.197 874,1305C875.006,1306.803 873.869,1308.233 875.446,1308C877.024,1307.767 880.295,1305.905 880,1304C879.705,1302.095 878.5,1283.127 879,1282C879.5,1280.873 879.527,1277.794 880,1277C880.224,1276.625 880.459,1276.71 880.646,1275.85C880.854,1274.891 881,1273 881,1273C881,1273 881.31,1273.323 880.917,1273.478C880.523,1273.633 880,1274.345 880,1274.345Z" style="fill:rgb(153,120,102);"/>
            <path d="M774,1440.642C774,1440.642 770.817,1434.079 776,1411C781.183,1387.921 805.431,1362.91 819,1362C832.569,1361.09 830.666,1369.999 843,1369C855.334,1368.001 854.053,1367.154 863.235,1360C872.417,1352.846 872.763,1352 872.763,1352C872.763,1352 873.885,1352.439 873,1355C872.115,1357.561 869.425,1367.157 868,1369C866.575,1370.843 865.097,1372.107 864,1373C862.903,1373.893 859.536,1374.653 859,1375C858.464,1375.347 848.584,1375.475 847,1375C845.416,1374.525 833.305,1372.525 831,1372C828.695,1371.475 824.309,1370.795 822,1371C819.691,1371.205 810.852,1372.107 810,1373C809.148,1373.893 803.091,1376.672 801,1379C798.909,1381.328 791.169,1393.552 789,1405C786.831,1416.448 787.272,1414.419 787,1417C786.728,1419.581 784.848,1435.464 785,1438C785.152,1440.536 785.359,1441.258 785,1442C784.641,1442.742 775.785,1438.938 774,1440.642Z" style="fill-opacity:0.04;"/>
            <path d="M820,1208.833C820,1208.833 827.466,1209.648 832,1213C836.534,1216.352 839.558,1216.976 839,1221C838.442,1225.024 837.607,1224.852 835,1225C832.393,1225.148 831.26,1223.975 829,1223C826.74,1222.025 821,1221 821,1221C821,1221 823.332,1220.383 825,1222C826.668,1223.617 830,1226 830,1226C830,1226 835.305,1228.378 836,1229C836.695,1229.622 839.545,1230.496 841,1229.821C842.455,1229.147 845.294,1227.424 846,1226C846.706,1224.576 848.543,1222.341 848.703,1221C848.862,1219.659 849.96,1218.456 848.703,1217C847.445,1215.544 845.475,1213.831 844,1213C842.525,1212.169 827.067,1208.903 825,1208.833C822.933,1208.762 820,1208.833 820,1208.833Z" style="fill-opacity:0.09;"/>
            <path d="M792.467,1190C792.467,1190 789.984,1187.553 802,1184C814.016,1180.447 816.616,1171.185 834.65,1184C852.683,1196.815 859.384,1197.378 860,1215C860.616,1232.622 858.631,1236.614 863,1246C867.369,1255.386 871,1260 871,1260C871,1260 863.877,1247.246 866,1226C868.123,1204.754 870.659,1199.69 869,1190C867.341,1180.31 866.945,1175.613 861,1170C855.055,1164.387 846.918,1156.166 840,1155C833.082,1153.834 826.045,1151.075 820,1154C813.955,1156.925 812.646,1158.37 806.836,1162C801.027,1165.63 797.469,1163.022 794,1169C790.531,1174.978 792.467,1190 792.467,1190Z" style="fill-opacity:0.09;"/>
            <path d="M669,1330C669,1330 671.636,1331.353 652,1346C632.364,1360.647 608.567,1378.824 611,1405C613.433,1431.176 613.567,1431.784 619,1440.642C624.433,1449.501 623.788,1450.787 625,1453C626.212,1455.213 610.75,1444.539 608,1437C605.25,1429.461 603.886,1426.178 603,1423C602.114,1419.822 601.405,1409.965 601.228,1407C601.051,1404.035 601.481,1398.596 602,1394C602.519,1389.404 603.858,1381.674 606,1378C608.142,1374.326 611.878,1366.616 615,1364C618.122,1361.384 623.94,1355.843 625,1355C626.06,1354.157 638.043,1345.95 640,1345C641.957,1344.05 654.18,1338.029 656,1337C657.82,1335.971 669,1330 669,1330Z" style="fill:white;fill-opacity:0.02;"/>
            <path d="M749,1358C749,1358 742.169,1353.66 732.167,1373C722.166,1392.34 732.546,1421.138 732.167,1435C731.788,1448.862 726.352,1444.237 715,1437C703.648,1429.763 694.892,1417.718 680,1426C665.108,1434.282 662.76,1434.441 658,1445C655.901,1449.656 656.666,1448.592 655,1453.296C652.019,1461.71 653,1463 653,1463C653,1463 655.322,1462.088 658.38,1459.479C662.557,1455.918 668.108,1450.06 671,1447C676.011,1441.7 677.189,1439.704 682,1439C686.811,1438.296 685.66,1438.347 692,1440C694.86,1440.746 700.557,1443.311 704.97,1448.825C710.338,1455.533 714.287,1465.647 715,1470C716.299,1477.932 719.013,1491.64 728,1494C736.987,1496.36 741.368,1500.346 749,1489.488C756.632,1478.629 756.469,1477.916 757,1472C757.531,1466.084 759.078,1459.084 759,1456C758.922,1452.916 760.025,1436.959 757,1434C756.105,1433.124 754.954,1429.401 753.013,1425.87C751.039,1422.277 748.281,1418.882 748.281,1418.882C748.281,1418.882 744.098,1411.655 743,1409C740.273,1402.41 738.482,1396.338 738.496,1387C738.505,1380.281 738.597,1378.274 738.925,1375.656C738.965,1375.334 739.974,1369.503 742.188,1365.396C743.279,1363.372 744.58,1362.763 745.752,1361.57C747.502,1359.787 748.962,1357.931 749,1358Z" style="fill-opacity:0.07;"/>
            <path d="M1022,1970C1022,1970 1048.046,1970.827 1064,1994C1079.954,2017.173 1105.396,2070.642 1107,2116C1108.604,2161.358 1143.282,2283.406 1139,2312C1134.718,2340.594 1136.95,2339.133 1138,2346C1139.05,2352.867 1138.015,2353.362 1148,2349C1156.976,2345.079 1138.832,2438.36 1142.345,2464.85C1144.567,2481.606 1161.501,2502.781 1169.075,2507.942C1177.904,2513.96 1201.242,2522.122 1215.82,2522.898C1220.831,2523.164 1230.098,2519.913 1230.189,2519C1230.312,2517.772 1235.392,2506.759 1230.027,2498.607C1226.765,2493.651 1215.229,2490.013 1209.104,2488.636C1197.9,2486.117 1173.126,2487.37 1171.207,2485.527C1171.207,2485.527 1165.026,2482.99 1161.701,2478.923C1161.102,2478.19 1159.468,2476.193 1158.871,2474.985C1156.951,2471.104 1155.396,2466.038 1156.492,2459.478C1157.18,2455.355 1159.061,2451.869 1160.096,2446.981C1160.606,2444.575 1159.159,2441.075 1159.757,2438.475C1161.052,2432.851 1154.808,2425.241 1153.033,2420.781C1152.205,2418.7 1153.292,2416.923 1153.841,2413.637C1155.246,2405.233 1158.674,2392.503 1158.536,2380.6C1158.448,2372.979 1160.439,2365.335 1159.607,2358.097C1159.189,2354.46 1158.103,2349.35 1159.757,2346.427C1162.568,2341.462 1168.857,2341.361 1173.064,2338.675C1175.48,2337.132 1176.658,2333.317 1177.169,2330.426C1177.755,2327.119 1179.469,2323.714 1179.169,2322C1178.255,2316.763 1178.689,2310.217 1176.73,2306.375C1171.915,2296.927 1162.725,2293.735 1157,2293C1148.947,2291.966 1146,2290.73 1146,2290.73C1146,2290.73 1152.073,2267.113 1154.527,2242.368C1156.513,2222.348 1155.057,2201.588 1154.527,2192C1153.343,2170.561 1140.175,2074.731 1139,2064C1137.825,2053.269 1127.566,1992.301 1116,1982C1105.408,1972.566 1094.145,1954.815 1063.85,1957.129C1061.065,1957.341 1057.12,1956.533 1054,1957.129C1016.931,1964.208 1015.662,1958.714 1010,1963C1004.338,1967.286 1014.621,1969.777 1018,1970C1021.379,1970.223 1022,1970 1022,1970Z" style="fill-opacity:0.03;"/>
            <path d="M660,1518C660,1518 661.359,1527.928 667,1512C672.641,1496.072 670.07,1491.563 680,1486.263C689.93,1480.963 691.327,1478.54 693,1473C694.673,1467.46 695.191,1463.764 693,1464C690.809,1464.236 687.1,1466 687.1,1466L677,1473C677,1473 671.458,1476.147 668,1483C664.542,1489.853 666.855,1489.799 664,1499C661.145,1508.201 660,1518 660,1518Z" style="fill:rgb(18,0,0);fill-opacity:0.04;"/>
            <path d="M638,2207C638,2207 638.812,2186.236 647,2201C655.188,2215.764 655.447,2233.361 677.228,2241C699.008,2248.639 709.816,2247.183 728,2238C746.184,2228.817 778.843,2203.097 782.62,2204C786.396,2204.903 790.863,2206.418 782.62,2216C774.377,2225.582 776.953,2226.555 769,2234C761.047,2241.445 754.002,2239.592 751.814,2242C749.626,2244.408 737,2247 737,2247L730,2247L721,2251C721,2251 710.04,2254.824 707,2256C703.96,2257.176 692.224,2259.798 689,2259.137C685.776,2258.477 684.02,2259.608 677.228,2258C670.435,2256.392 661.187,2254.025 653,2244C644.813,2233.975 640,2223 640,2223L637,2217L638,2207Z" style="fill:rgb(18,0,0);fill-opacity:0.04;"/>
            <path d="M896,1239C896,1239 896.226,1235.506 888,1245C879.774,1254.494 874.708,1274.061 879,1286C883.292,1297.939 885.877,1298.387 886,1302C886.123,1305.613 885.672,1306.471 885,1307C884.328,1307.529 891.292,1303.864 890.951,1303C890.61,1302.136 890.918,1301.291 890,1300C889.082,1298.709 889.25,1299.518 887,1296C884.75,1292.482 883.199,1289 883.199,1289C883.199,1289 882.518,1286.647 882,1284C881.482,1281.353 881.366,1275.924 881.116,1274.345C880.866,1272.766 880.792,1270.776 881.116,1269C881.44,1267.224 880.586,1268.199 882,1267C883.414,1265.801 888.421,1260.842 889,1259C889.579,1257.158 893.901,1248.593 894,1247C894.099,1245.407 893.904,1245.509 895,1243C896.096,1240.491 896,1239 896,1239Z" style="fill-opacity:0.07;"/>
            <path d="M754,1259C754,1259 756.418,1247.639 747,1251C737.582,1254.361 734.457,1252.414 732.167,1266C729.878,1279.586 729.294,1282.532 732.167,1291C735.04,1299.468 731.776,1299.066 739,1305C746.224,1310.934 749.879,1311.979 750,1307C750.121,1302.021 749.708,1302.993 747,1296C744.292,1289.007 743.278,1285.904 743,1280C742.722,1274.096 742.816,1274.342 746,1269C749.184,1263.658 754,1259 754,1259Z" style="fill-opacity:0.07;"/>
            <path d="M797,2188C797,2188 773.008,2206.771 807,2163C840.992,2119.229 827.19,2132.221 848,2105C868.81,2077.779 863.997,2077.634 878,2065C883.044,2060.449 879.607,2051.414 881.506,2046.833C884.877,2038.699 891,2036 891,2036C891,2036 912.638,2025.307 910.339,2043C908.041,2060.693 929.457,2087.008 863.235,2138C797.013,2188.992 797,2188 797,2188Z" style="fill-opacity:0.07;"/>
            <path d="M969,2470.486C969,2470.486 971.407,2468.446 962,2473C952.593,2477.554 942.62,2493.256 954,2514C965.38,2534.744 998.639,2503.001 1006,2529C1013.361,2554.999 1010.289,2570.213 1003,2575C995.711,2579.787 989,2585.953 989,2585.953C989,2585.953 1012.783,2588.997 1021,2582C1029.217,2575.003 1033.865,2573.622 1035,2565.916C1036.135,2558.21 1037.765,2547.343 1033,2539C1028.235,2530.657 1026.653,2526.929 1022,2522.819C1017.347,2518.708 1007.279,2510.142 1002,2510C996.721,2509.858 1000.149,2510.232 993,2508.317C985.851,2506.403 977.409,2507.184 974,2491.636C970.591,2476.087 973.364,2487.593 971.759,2481C970.154,2474.407 969,2470.486 969,2470.486Z" style="fill-opacity:0.02;"/>
            <path d="M817.71,1241.644C817.71,1241.644 814.754,1248.533 818.462,1247.963C819.938,1247.737 822.086,1243.141 821.478,1241.522C821.017,1240.297 818.579,1240.302 818.635,1240.906" style="fill:white;fill-opacity:0.2;"/>
        </g>
    </g>
</svg>
